<?xml version="1.0" encoding="UTF-8"?>
<svg id="katman_1" data-name="katman 1" xmlns="http://www.w3.org/2000/svg" version="1.1" viewBox="0 0 1329.09 868.53">
  <defs>
    <style>
      .cls-1 {
        fill: #f8f9f8;
      }

      .cls-1, .cls-2, .cls-3, .cls-4, .cls-5 {
        stroke-width: 0px;
      }

      .cls-2 {
        fill: #2d2d2f;
      }

      .cls-3 {
        fill: #fdfdfd;
      }

      .cls-4 {
        fill: #404042;
      }

      .cls-5 {
        fill: #e66d54;
      }
    </style>
  </defs>
  <path class="cls-4" d="M188.25,625.74c.44,4.63.65,9.51,1.87,13.99-22.35.36-44.84-.42-67.2-.76-40.98-.63-81.96-1.41-122.92-3.02l.35-.76c33.18-1.06,66.39-3.92,99.58-5.35,29.26-1.26,59.25-.78,88.31-4.1Z"/>
  <path class="cls-4" d="M1140.32,626.89c8.67-1.15,17.37-.65,26.07-.15,54.45,1.81,108.46,5.26,162.71,10.31-18.2,2.61-45.29,1.38-64.47,1.4-32.84.03-65.8.73-98.63-.61-9.15-.38-18.38-.14-27.54-.12.85-3.54,1.29-7.23,1.86-10.83Z"/>
  <path class="cls-4" d="M314.51,408.63c10.93-.33,21.96-.09,32.91-.1,6.38,0,13.7-.75,19.92.36,2.41.43,3.81,1.28,5.65,2.85,3.86,7.08,2.77,31.36.79,39.26-1.37,1.32-2.93.97-4.78,1.09-9.03-2.1-18.1-4.17-27.24-5.73-7.84-1.33-16.49-1.99-24.05-4.37-2.89-.91-6.03-2.05-7.88-4.58-3.19-4.35-2.91-16.49-1.7-21.62.87-3.69,3.31-5.29,6.38-7.18Z"/>
  <path class="cls-4" d="M498.42,689.37c6.77-.5,12.73-.3,18.8,3.2,6.89,3.97,11.78,10.9,13.73,18.56,1.86,7.33.88,14.86-3.07,21.33-4.48,7.34-11.02,11.13-19.13,13.19-6.29.49-11.89.33-17.7-2.42-7.18-3.4-12.86-9.89-15.23-17.48-2.24-7.2-1.28-14.93,2.36-21.51,4.46-8.06,11.6-12.48,20.23-14.88Z"/>
  <path class="cls-1" d="M498.75,697.72c4.35-.31,8.59-.24,12.65,1.56,4.99,2.22,8.73,6.21,10.67,11.31,2.02,5.3,1.88,11.48-.69,16.57-2.99,5.93-8.02,8.86-14.15,10.78-4.49.35-8.72.18-12.86-1.78-5.24-2.49-9.28-7.15-10.93-12.72-1.54-5.17-.86-10.86,1.73-15.58,3.05-5.56,7.71-8.32,13.6-10.14Z"/>
  <path class="cls-4" d="M851.33,689.36c6.52-.4,12.08.11,17.92,3.42,7.01,3.97,12.25,10.88,14.27,18.66,1.91,7.38.8,14.7-3.14,21.2-4.7,7.76-11.54,11.66-20.09,13.74-6.84.4-12.87.22-19.12-3.06-6.47-3.39-11.74-9.38-13.85-16.41-2.12-7.07-1.05-14.83,2.45-21.28,4.65-8.57,12.39-13.67,21.57-16.27Z"/>
  <path class="cls-1" d="M852.61,697.7c3.6-.28,7.08.07,10.43,1.46,5.49,2.27,9.52,6.88,11.51,12.42,1.8,5,1.8,10.47-.55,15.29-3.24,6.66-8.83,9.37-15.5,11.49-5.32.39-9.7.35-14.41-2.45-4.61-2.75-7.84-7.38-9.14-12.57-1.31-5.25-.37-10.84,2.44-15.46,3.52-5.78,8.8-8.67,15.21-10.18Z"/>
  <path class="cls-4" d="M637.26,278.95c15.69-.98,31.67-.73,47.39-.6,47.6.37,94.98,3.65,142.07,10.75,18.29,2.76,37.44,5.65,55.13,11.15,12.78,3.98,23.36,11.22,32.05,21.41,10.18,11.93,16.72,27.56,23.57,41.56,12.8,26.16,24.44,53.16,38.09,78.86-5.83-.89-11.67-1.75-17.47-2.83-5.19-9.6-9-20.22-13.5-30.19-8.35-18.5-17.15-36.95-26.41-55.01-4.62-9-9.21-19.15-16.03-26.7-4.51-4.98-10.05-9.67-16.2-12.49-12.66-5.8-27.6-8.07-41.24-10.49-43.24-7.68-87.14-11.16-130.96-13.33-63.37-1.29-125.91,1.48-188.66,10.89-14.84,2.22-30.64,3.74-44.99,8.16-29.61,9.12-53.8,65.74-64.97,93.32-5.34,13.18-9.9,27.6-16.54,40.13-.13.25-.27.5-.4.74-4.79,1.75-9.96,2.86-14.89,4.13,12.12-34.93,40.3-105.62,64.43-131.9,7.24-7.88,16.81-14.03,26.86-17.65,15-5.41,32.21-7.19,47.94-9.4,38.15-5.36,76.22-9.1,114.75-10.5Z"/>
  <path class="cls-4" d="M1101.88,706.73c3.03-2.31,6.31-4.24,9.55-6.25.86,29.83.8,59.65.8,89.49,0,15.59,1.22,32.43-.95,47.87-.78,5.54-2.36,10.48-5.49,15.17-6.13,9.2-14.87,13.07-25.33,15.01-2.18.12-4.39.33-6.58.21-2.69-.19-5.4.4-8.03.19-4.45-.35-2.66-3.27-4.7-5.6-1.16-.04-2.45-.13-3.6.04-1.83.28-2.56.95-3.7,2.27-.13.16-1.06,1.25-1.23,1.41-2.74,2.52-6.61,2.01-10.01,1.73-2.14-1.55-.54-3.25-2.01-5.42-7.47-.22-6.87,3.66-12.16,5.1-2.07.56-5.57.84-7.43-.31l-.67-4.43c-.18-.09-.34-.2-.53-.26-2.12-.7-4.73.11-6.54,1.21-.75,1.32-1.25,2.38-2.45,3.34-1.3,1.04-3.91.95-5.52.77-2.17-.24-3.8-.76-5.12-2.59-.24-.34-.47-.68-.7-1.03-1.48-.51-.94-.53-2.36-.3-1.47.24-2,1.65-2.83,2.81-.27.03-.53.08-.8.08-6.76.08-15.27-5.42-19.75-10.05-15.05-15.58-10.79-46.03-10.51-66.01,24.38-1.98,49.64-4.39,73.71-8.75,5.82-1.06,11.31-3.62,17.13-4.84l1.43,1.05,1.19-.23v-1.76s1.11-.4,1.11-.4c.94.35,2.05.87,3.05,1.02,1.52.23,1.88.25,3.07-.67-.85-1.08-1.17-1.48-1.52-2.84,3.28-2.01,6.76-3.72,9.98-5.8,6.89-4.46,18.87-5.12,22.9-8.26l-.6-.5c-4.13-.56-8.17.5-12.21,1.28,4.74-6.15,6.04-3.38,11.5-6.09.93-.46.91-1.14,1.27-2.05-1.68-.85-4.25.17-6.29-.17.83-2.78,4.88-4.31,6.29-7.17-.82-.93-1.14-1.2-.97-2.49.31-2.33,1.97-5.56,2.69-7.93,2.67-8.77,5.22-18.63,4.97-27.86Z"/>
  <path class="cls-1" d="M1053.44,834.64c2.66-.22,6.8-1.02,9.28.14,1.06.5.98,1.42,1.3,2.45-3.11.22-7.05,1.06-9.92-.41l-.67-2.18Z"/>
  <path class="cls-1" d="M1053.35,812.74c2.88-.3,6.41-.99,9.24-.18,1.22.35,1.22.97,1.81,2.01-2.78.93-6.43,1.66-9.25.59-1.28-.48-1.25-1.25-1.8-2.42Z"/>
  <path class="cls-1" d="M1010.19,820.26c2.57-.37,5.74-.95,8.3-.39,2.08.45,2.09,1,3.18,2.72-2.62.35-5.91.92-8.5.32-2.02-.47-1.99-.93-2.98-2.64Z"/>
  <path class="cls-1" d="M1053.58,797.57c2.8-.28,6.4-1.09,9.1-.14,1.46.51,1.37,1.44,1.92,2.77-3.26.18-7.56.91-10.51-.51l-.51-2.12Z"/>
  <path class="cls-1" d="M1010.39,812.7c2.79-.33,7.08-1.27,9.63.05,1.02.53.9,1.63,1.15,2.66-2.4.15-5.92.79-8.21.07-1.84-.58-1.78-1.13-2.56-2.78Z"/>
  <path class="cls-1" d="M1073.88,868.24c.09-2.42.17-3.42,1.87-5.15,1.86-.22,2.16.21,3.81,1.15.58,1.3.74,2.39.9,3.79-2.18.12-4.39.33-6.58.21Z"/>
  <path class="cls-1" d="M1053.47,826.95c2.67-.16,7.18-.95,9.52.4,1.03.59.86,1.64,1.08,2.72-2.69-.02-6.74.91-9.18-.22-1.2-.55-1.09-1.72-1.42-2.9Z"/>
  <path class="cls-1" d="M1035.18,841.73c1.55-.13,3.52-.49,5.01.03,1.43.5,1.56,1.01,2.16,2.26-1.03.95-1.61.72-2.96.84-1.31.08-2.7.2-4.01.08-1.57-.14-2.98-.69-3.96-1.95,1.27-1.24,2.07-1.04,3.76-1.27Z"/>
  <path class="cls-1" d="M1010.56,826.93c2.71-.11,6.81-.79,9.17.56,1.14.65,1.1,1.77,1.47,2.96-2.63.05-6.65.66-9.07-.46-1.32-.61-1.19-1.75-1.57-3.06Z"/>
  <path class="cls-1" d="M1053.49,804.92c3.12-.2,7.44-1.03,10.15.71l.53,2.51c-2.71,0-7.02.99-9.43-.39-.98-.56-.97-1.81-1.25-2.83Z"/>
  <path class="cls-1" d="M1031.53,834.58c2.78-.19,7.04-.96,9.57.24,1.22.58,1.1,1.83,1.43,3.05-2.82.06-7.18.68-9.67-.51-1.13-.54-1.03-1.66-1.33-2.78Z"/>
  <path class="cls-1" d="M1031.39,820.12c3.41-.23,7.76-1.11,10.77.75l.6,2.6c-2.95-.12-7.28.58-9.95-.63-1.2-.54-1.07-1.55-1.42-2.72Z"/>
  <path class="cls-1" d="M1031.47,812.54c2.82-.2,7.74-1.06,10.21.31,1.01.56.83,1.72,1.02,2.76-2.77.16-7.61.95-10.04-.37-.97-.53-.93-1.71-1.19-2.71Z"/>
  <path class="cls-1" d="M1010.6,789.91c2.87-.06,7.48-1.11,10.03.41.99.59,1.01,1.91,1.3,2.95-2.97-.15-7.3.8-9.98-.53-1.07-.53-1.04-1.76-1.36-2.83Z"/>
  <path class="cls-1" d="M1053.37,789.12c2.82-.17,7.41-.98,9.89.52,1.05.63,1.09,2,1.43,3.11-3-.24-7.36.61-10.05-.74-1.05-.53-.99-1.83-1.26-2.89Z"/>
  <path class="cls-1" d="M1035.4,797.66c1.39-.09,2.95-.28,4.33-.11,1.64.2,2.3,1.01,3.16,2.29-1.26,1.25-1.79.92-3.5,1.05-1.77.13-3.95.48-5.64-.13-1.41-.51-1.66-.69-2.2-2.08,1.29-1,2.27-.94,3.86-1.02Z"/>
  <path class="cls-1" d="M1033.45,827.26c2.29-.16,5.38-.73,7.54.1,1.04.4.96.92,1.35,1.85l-.52,1.13-1.27.42c-2.96.01-7.43.39-9.77-1.72.96-.87,1.43-1.35,2.67-1.79Z"/>
  <path class="cls-1" d="M1031.82,789.36c3.09.09,7.63-.9,10.47.37.95.43,1.11,1.66,1.48,2.57-3.56.33-9.01,1.56-11.91-.82l-.05-2.13Z"/>
  <path class="cls-1" d="M1011.17,797.66c3.01-.02,5.77-.6,8.78-.06,1.62,1.39,1.28,2.02,1.45,4.09-3.23-.54-7.95.31-10.41-1.96l.19-2.07Z"/>
  <path class="cls-1" d="M984.31,848.33c4.37-.05,9.28-.41,13.55.61,1.97.47,1.92.83,2.95,2.51-.14.01-.27.03-.41.04-6,.47-11.16.87-16.08-3.16Z"/>
  <path class="cls-1" d="M1093.13,765.92l1.5.12.58,1.64-.8,1.16c-5.88,1.22-12.22,1-18.21,1.18l-.9-.24-.21-.66c4.86-2.33,12.63-2.43,18.04-3.2Z"/>
  <path class="cls-1" d="M1094.17,773.58l1.25,1.12-.29.97c-3.8,2.57-14.49,1.58-19.26,1.63-.61-.64-.49-.98-.61-1.84,2.94-1.81,14.86-1.57,18.91-1.9Z"/>
  <path class="cls-1" d="M977.84,796.86c5.49-.6,15.34-.72,20.49,1.51,1.24.54,1.14,1.23,1.62,2.42-5.92-.04-12.74-.4-18.54-1.55-1.99-.4-2.48-.69-3.57-2.38Z"/>
  <path class="cls-1" d="M978.26,840.13c4.45-.5,17.46.31,21.46,2.07l.8,2.23c-7.38.8-15.96-.29-22.26-4.31Z"/>
  <path class="cls-1" d="M1086.99,781.22c1.74-.24,3.51-.53,5.26-.35,1.35.14,2.14.03,2.98,1.12-3.35,3.02-9.3,2.37-13.53,2.35-1.68.09-3.3.07-4.98.01l.33-.13-1.69-1.14-1.08.54c3.48-2.61,8.54-2.33,12.7-2.39Z"/>
  <path class="cls-1" d="M977.29,825.75c5.32-.85,15.71-.7,20.82.88,1.6.49,1.62,1.09,2.33,2.49-.77.13-.88.17-1.79.21-5.32.25-17.44.22-21.36-3.58Z"/>
  <path class="cls-1" d="M977.21,818.82c3.86-.74,18.27-.57,21.67,1.16.93.47.91,1.67,1.18,2.6-5.31-.26-19.04.35-22.84-3.77Z"/>
  <path class="cls-1" d="M1094.34,832.74c1.03.04.48-.11,1.54.73-.24.41-.48.88-.84,1.22-3.31,3.14-14.71,2.09-19.19,2.28-.94-.32-.44-.03-1.32-1.12l.37-.94c5.25-2.11,13.62-1.52,19.44-2.16Z"/>
  <path class="cls-1" d="M1093.37,788c.4-.1,1.21.04,1.63.07l.56,1.24c-3.12,3.02-13.49,2.88-17.97,3.26-.88-.06-1.64-.28-2.49-.5l-.53-1.68c4.29-2.35,13.83-1.95,18.81-2.4Z"/>
  <path class="cls-1" d="M1091.52,795.46c2.26-.19,2.49-.2,4.47.89v1.01c-4.54,2.31-11.6,2.13-16.69,2.53-1.7.09-3.58.31-4.95-.71,2.96-3.23,12.65-2.89,17.17-3.72Z"/>
  <path class="cls-1" d="M1092.69,810.7c1.55-.21,1.55-.24,2.88.58l-.05,1.08c-3.99,2.92-13.32,2.26-18.3,2.48-.76.16-1.35-.02-2.11-.16l-.71-1.38.51-1c5.5-1.3,12.09-1.05,17.77-1.6Z"/>
  <path class="cls-1" d="M977.67,803.7c5.43-.47,15.54-.62,20.53,1.5,1.41.6,1.34,1.41,1.93,2.75-6.31-.33-14.28-.07-20.26-2.05-1.52-.5-1.52-.85-2.2-2.21Z"/>
  <path class="cls-1" d="M977.79,832.59c6.04.17,15.47-.57,20.95,1.57,1.3.51,1.24,1.23,1.79,2.45-6.06.16-13.3.26-19.19-1.27-2.1-.55-2.52-.86-3.56-2.75Z"/>
  <path class="cls-1" d="M1092.7,825.84l2.22.05,1.12,1.19-.35.59c-4.69,2.59-12.75,1.93-18.11,2.06-1.55.03-1.82.08-3.13-.71l-.1-1.06c3.64-2.4,13.68-1.86,18.35-2.11Z"/>
  <path class="cls-1" d="M1093.48,803.15c1.59-.19.91-.39,2.07.38l.14,1.39c-3.02,2.92-15.03,2.42-19.38,2.67-1.44-.32-.79.05-1.82-1.32l.44-.9c5.45-1.95,12.74-1.72,18.54-2.21Z"/>
  <path class="cls-1" d="M978.39,810.66c5.6.37,15.38-.66,20.31,1.78,1.03.51.95,1.66,1.22,2.68-4.93-.33-18.07.53-21.64-2.47l.11-2Z"/>
  <path class="cls-1" d="M1091.45,818.24c2.26-.26,2.66-.39,4.8.64l-.53,1.59c-4.86,2.1-12.18,1.56-17.45,1.78-1.87.01-2.36.13-3.92-.82l.21-1.29c4.2-1.9,12.2-1.52,16.91-1.9Z"/>
  <path class="cls-4" d="M244.07,696.07c4.62,7.19,10.36,11.66,17.56,16.11.64,22.14,1.82,34.82,15.81,52.6,2.15,1.71,4.65,3.36,6.43,5.44,5.92,3.49,11.54,6.62,18.35,7.98l.94-.17,3.55.17.84-.88c5.86,1.42,24.72,3.49,28.51,6.22,3.54,7.11,11.5-.49,18.82,3.25,4.69,2.39,29.61,4.61,36.97,5.6-.87,18.14,3.98,49.34-8.42,63.48-7.34,8.37-16.5,10.65-27.08,11.28-16.77.99-33.78.45-50.58.44-11.46,0-24.64,1.41-35.82-1.07-4.83-1.07-9.66-3.92-13.28-7.25-5.2-4.77-9.5-12.09-11.19-18.98-3.37-13.77-1.53-30.53-1.46-44.66.17-33,1.56-66.59.05-99.55Z"/>
  <path class="cls-1" d="M316.97,791c1.72-.01,3.44.02,5.16.04,1.69,1.5,1.41,2.46,1.71,4.64-1.68.03-3.33-.01-5.01-.09-1.51-1.4-1.43-2.62-1.86-4.6Z"/>
  <path class="cls-1" d="M315.8,861.37c2.13-.17,4.16-.24,6.3-.14,2,1.26,1.86,1.49,2.6,3.78-1.97.09-3.92.09-5.89.08-2.21-1.21-2.1-1.48-3.01-3.71Z"/>
  <path class="cls-1" d="M317.02,801.41c1.84.07,3.58.24,5.4.5,1.63,1.63,1.43,2.6,1.76,4.84-2.05-.09-3.98-.22-5.99-.63-1.35-1.62-1.06-2.64-1.17-4.71Z"/>
  <path class="cls-1" d="M316.02,852.38c2.5-.16,5.13-.57,7.52.32.97,1.62.7,2.28.58,4.12-2.15-.32-4.39-.13-6.57-.26-1.51-1.4-1.27-2.19-1.53-4.19Z"/>
  <path class="cls-1" d="M316.3,811.77c2.27-.11,4.39-.31,6.62.27,1.25,1.75,1.05,2.81,1.18,4.92-2.13.07-4.06.13-6.16-.32-1.45-1.72-1.33-2.67-1.63-4.87Z"/>
  <path class="cls-1" d="M316.07,842.81c2.37-.15,4.63-.35,6.98.02,1.57,1.64,1.26,2.52,1.42,4.73-2.36.06-4.64.17-6.97-.27-1.53-1.52-1.24-2.38-1.43-4.48Z"/>
  <path class="cls-1" d="M316.29,822.35c2.24-.25,4.81-.83,6.95-.05,1.25,1.79,1.04,2.68,1.14,4.83-2.35.08-4.57.2-6.88-.25-1.54-1.7-1.19-2.3-1.21-4.52Z"/>
  <path class="cls-1" d="M316.17,832.58c2.41-.17,4.74-.48,7.1.13,1.36,1.73,1.13,2.71,1.28,4.87-2.4.01-4.69.09-7.05-.44-1.54-1.66-1.22-2.36-1.33-4.57Z"/>
  <path class="cls-1" d="M338.35,852.74c.46.03,1.02.05,1.46.17,2.34.63,4.85,1.09,7.13,1.83l.64,3.01c-2.92.15-7.37,1.08-9.88-.7-.38-1.88.03-2.53.64-4.31Z"/>
  <path class="cls-1" d="M293.82,861.57c2.89-.22,5.66-.61,8.5.1,1.25,1.61.93,1.83.72,3.89-2.8.03-7.14.67-9.57-.88-.42-1.67-.22-1.61.35-3.12Z"/>
  <path class="cls-1" d="M337.65,843.41c3.22-.09,6.44.37,9.36,1.73l.85,3.16c-2.93.21-6.47.89-9.25-.17-1.4-1.68-1-2.58-.97-4.72Z"/>
  <path class="cls-1" d="M337.3,833.54c3.06.16,7.15.13,9.88,1.54l.84,2.95c-2.88.66-6.56,1.38-9.36.23-1.48-1.71-1.22-2.51-1.36-4.72Z"/>
  <path class="cls-3" d="M292.71,853.04c3.58-.07,7.69-1.31,10.68,1.06l.14,2.95c-3.66.02-7.41,1.44-10.53-.9l-.29-3.11Z"/>
  <path class="cls-1" d="M368.88,849.63c.61.64.68,1.2.93,2.03-1.7,3.71-6.43,4.63-10.04,5.97-.48-1.02-.53-1.79-.66-2.9,1.63-2.89,6.76-4.02,9.77-5.1Z"/>
  <path class="cls-1" d="M337.03,823.38c3.31-.18,7.1-.47,10.12,1.09l.86,3.31c-2.87.6-6.26,1.19-9.1.29-1.79-1.53-1.53-2.41-1.88-4.68Z"/>
  <path class="cls-1" d="M293.24,843.52c3.18-.13,6.23-.9,9.36-.04,1.35,1.64.93,2.35.82,4.42-2.26-.24-4.06.07-6.28.17-1.77.08-2.44,0-3.78-1.17l-.11-3.38Z"/>
  <path class="cls-1" d="M293.46,833.37c2.96-.08,6-.87,8.9-.09,1.62,1.57,1.27,2.4,1.41,4.59-3.08-.07-5.9.52-8.96-.15-1.63-1.55-1.26-2.16-1.35-4.34Z"/>
  <path class="cls-1" d="M336.3,792.16c1.8-.01,3.61-.03,5.41.04,1.99.08,4.1.25,5.52,1.79l-.57,1.02.59,1.04-.18.36-.67.14c-3.18-.7-5.14,1.48-8.11.91-1.61-1.93-1.56-2.86-1.97-5.29Z"/>
  <path class="cls-1" d="M346.87,812.52c.42,1.57.6,2.57.36,4.18-1.8,1.48-6.55,1.25-8.88,1.53-.84-1.03-1-2.01-1.37-3.27l.8-1.33c2.81-.9,5.39-.06,8.09-.81.34-.09.67-.2,1-.3Z"/>
  <path class="cls-1" d="M293.5,790.38c3.09.34,5.98-.58,9.05.19,1.38,1.59,1.02,2.54,1.06,4.6-2.96.01-5.89.68-8.8-.06-1.68-1.65-1.25-2.44-1.31-4.73Z"/>
  <path class="cls-1" d="M369.06,830.39l1.23.59-.27,2.49c-2.05,2.89-6.72,3.46-10,4.3-.73-.54-.85-1.14-1.22-1.95l.68-1.38c2.93-2.04,6.23-2.95,9.58-4.05Z"/>
  <path class="cls-1" d="M367,790.55c1.57-.12,2.12-.39,3.56.34l-.52,1.34c-2.76,2.34-5.66,3.62-8.93,5.06-.96.29-.55.28-1.57.1-.92-.17-.61.02-1.11-.68-.02-1.28.29-1.77.82-2.9,2.4-2.23,4.68-2.61,7.75-3.25Z"/>
  <path class="cls-1" d="M293.41,822.7c3.03.27,6.11-.2,9.06.57,1.56,1.6,1.11,2.78,1.16,4.96-3.02-.38-6.21.38-9.08-.59-1.4-1.76-1.08-2.73-1.14-4.94Z"/>
  <path class="cls-1" d="M368.98,840.07s.07.05.1.08c.87,1.24.93,1.6,1.02,3.08-1.7,2.68-7.08,3.89-10.06,4.92-.85-.85-.79-1.65-1.05-2.8,1.79-3.37,6.56-4.15,10-5.29Z"/>
  <path class="cls-1" d="M302.22,778.21l.94-.17c.13.82.4,1.92.38,2.77-.02,1.07-.02,1.71-.81,2.44-1.65,1.53-4.04,2.33-6.29,1.89-1.78-.35-2.2-.9-3.12-2.28,2.05-4.6,4.95-2.08,8.32-4.18.21-.13.38-.32.58-.47Z"/>
  <path class="cls-1" d="M339.31,801.55c.33.05.66.06.98.15,1.09.29,1.71.71,2.89.8,1.29.1,2.34.35,3.6.67.86,1.73.41,2.48.11,4.31-3.18.16-6.66.73-9.63-.58l-.54-1.4c.61-1.75,1.38-2.61,2.59-3.95Z"/>
  <path class="cls-1" d="M297.93,800.95c1.32.17,2.65.22,3.98.3,1.25,1.01,1.61,1.64,2.14,3.15-.56,1.64-.48,1.31-1.81,2.14l-2.4-.66c-1.93-.16-2.67.62-4.31,1.54-1.54-.23-1.72-.39-2.92-1.4l.02-1.09c1.87-2.56,2.34-2.79,5.3-3.97Z"/>
  <path class="cls-1" d="M300.79,812.17l1.63-.46,1.09.69c.33,1.27.77,2.12-.24,3.25-1.82,2.05-4.4,1.72-6.91,1.96-1.83-.05-2.44-.59-3.99-1.51l.81-1.16.06-.55c2.87-2.01,3.98-1.93,7.54-2.22Z"/>
  <path class="cls-1" d="M369.2,820.05c1.08.65,1.09.99,1.67,2.07-2.27,3.85-6.8,4.65-10.85,6.03-.18-.15-.4-.25-.53-.45-.93-1.41-.71-1.99-.15-3.39,2.92-2.13,6.48-3.08,9.86-4.27Z"/>
  <path class="cls-1" d="M369.83,809.34s.05.03.06.05c.62,1.07.74,1.83.79,3.05-2.2,3.54-7.17,4.29-10.99,5.42-.51-1.35-.52-2.06-.31-3.48,2.69-2.52,7.04-3.6,10.45-5.04Z"/>
  <path class="cls-1" d="M369.61,798.71c1,1.29.86,1.7,1.06,3.27-1.91,3.49-7.36,4.58-10.95,5.84-.61-1.16-.62-1.64-.68-2.92,2.19-3.02,7.22-4.64,10.57-6.19Z"/>
  <path class="cls-1" d="M283.87,770.23c-4.76-.97-12.4-2.59-15.34-6.97-1.07-1.59-1.15-2.55-.89-4.4,3.66.72,5.46,5.2,8.99,5.89.26.05.54.02.81.03,2.15,1.71,4.65,3.36,6.43,5.44Z"/>
  <path class="cls-1" d="M268.58,848.9c3.26,1.96,8.75,2.75,11.26,5.27.79.8.46,3.15.48,4.28-3.01-.68-7.72-1.13-10.02-3.27-1.77-1.64-1.61-4.04-1.73-6.27Z"/>
  <path class="cls-1" d="M306.71,778.2l.84-.88c5.86,1.42,24.72,3.49,28.51,6.22-4.44.18-8.6-1.82-13.07-1.97l-.65.69.32,3.06-.77.84c-1.84-.15-2.69-.02-4.2-1.12.27-1.4.36-2.04.15-3.49-2.98-2.26-7.61-1.96-11.12-3.34Z"/>
  <path class="cls-1" d="M267.98,838.32c3.71,1.95,9.25,3.1,12.21,5.99.86.84.6,2.63.66,3.79-2.8.41-7.04-.92-9.32-2.61-2.85-2.12-3.13-3.81-3.55-7.17Z"/>
  <path class="cls-1" d="M268.39,815.94c3.88,2,8.06,3.04,11.39,5.97.87,2.15.57,2.62.08,4.82-3.18-1.06-8.7-2.59-10.73-5.29-1.41-1.87-.91-3.35-.74-5.5Z"/>
  <path class="cls-1" d="M267.5,781.15c3.48,2.38,9.31,3.99,11.99,7.1,1.53,1.78,1.11,3.62,1.15,5.82-3.6-2.31-8.59-3.77-11.59-6.78-1.78-1.78-1.43-3.79-1.55-6.14Z"/>
  <path class="cls-1" d="M267.88,791.73c3.34,2.97,8.65,4.18,11.46,7.29,1.52,1.67,1.11,3.38,1.15,5.49-3.56-1.96-10.01-3.8-12.38-7-1.21-1.63-.53-3.92-.24-5.78Z"/>
  <path class="cls-1" d="M275.36,836.38c-1.1-.4-2.23-.79-3.28-1.3-2.71-1.3-3.85-3.55-4.73-6.28l1.53-.56-.61-.28c2.3-.19,4.38,1.58,6.25,2.77,2.41.92,4.72,1.22,6.04,3.65.27.5.38,1.15.49,1.71l-.81,1.22c-1.98.35-3.09-.18-4.87-.93Z"/>
  <path class="cls-1" d="M267.84,803.14c3.45,2.5,8.21,3.92,11.21,6.81,1.86,1.8,1.44,3.4,1.56,5.81-3.46-1.44-8.43-2.89-11.08-5.57-2.1-2.12-1.73-4.27-1.7-7.06Z"/>
  <path class="cls-1" d="M267.79,769.75c3.69,2.28,8.03,4.08,11.23,7.04,2.14,1.97,1.92,3.29,1.94,6.01-3.58-1.09-8.48-3.55-11.19-6.18-2.26-2.2-1.91-3.89-1.98-6.87Z"/>
  <path class="cls-5" d="M409.51,795.14c7.48.14,15.27,1.48,22.76,2.13,17.39,1.51,34.78,2.97,52.2,4.14,49.92,3.38,99.85,5.04,149.87,5.45,39.61.32,79.1-.24,118.7-1.07,24.53-.52,49.06-.75,73.57-2.11,22.6-1.25,45.21-2.8,67.76-4.76,15.85-1.38,31.9-3.4,47.79-3.91-.03,16.14-1.6,34.73,3.15,50.24,1.61,5.24,8.48,15.8,8.86,19.71l-1.11.04c-26.86-.85-53.92-.26-80.8-.29l-161.27.39-316.57-.35c15.91-20.49,15.27-44.85,15.09-69.62Z"/>
  <path class="cls-4" d="M276.82,712.8c10.96,1.58,21.84,3.55,32.84,4.9,30.98,3.81,62.49,6.21,93.64,8.34,22.68,1.55,45.69,1.68,68.27,3.98,4.28,6.09,8.48,12.1,14.9,16.15,7.37,4.65,16.48,5.66,24.87,3.58,11.79-2.92,18.12-10.92,24.23-20.68l87.98,2.87c18.89.57,37.83,1.51,56.73,1.42,17.9-.08,35.85-1.04,53.74-1.64l88.38-2.91c3.38,6.9,7.85,12.7,14.38,16.89,7.86,5.05,17.34,6.82,26.45,4.53,11.24-2.83,17.77-10.49,23.62-19.86,15.08-1.31,30.54-.99,45.69-1.5,20.67-.7,41.33-2.07,61.97-3.48,19.14-1.31,38.41-2.76,57.43-5.29,10.12-1.35,20.11-3.73,30.24-4.82l.9-.09c-.85,4.18-1.98,8.19-3.22,12.26-2.24,6.11-4.88,11.65-8.92,16.79-14.24,18.11-33.9,21.66-55.45,25.14-11.47,1.85-23,3.46-34.53,4.86-65.64,7.97-131.9,11.83-197.97,13.95-58.3,1.88-116.16,2.51-174.49,1.25-78.84-1.7-158.2-5.21-236.47-15.36-21.31-2.76-66.63-6.59-82.25-19.47-11.15-9.2-11.51-28.5-12.97-41.83Z"/>
  <path class="cls-4" d="M250.01,659.59c17.05.13,34.07,3.18,51.15,3.87,22.88.92,45.88.67,68.77,1.06,20.65.36,41.27,1.4,61.93,1.77l134.37,1.12,323.23,1.2c28.88.01,57.66-1.24,86.52-1.88,23.48-.53,47-.29,70.46-1.02,11.48-.36,22.93-1.14,34.39-1.93,9.58-.66,20.85-2.5,30.28-.6,2.69,2.16,4.02,4.07,4.44,7.57.91,7.51-2.49,16.92-7.08,22.84-14.01,18.05-54.95,20.24-75.97,22.39-47.72,4.24-95.31,7.23-143.21,8.56-.06-10.11-1.21-19.26-8.05-27.31-6.02-7.09-15.28-11.75-24.6-12.15-8.82-.38-17.71,3.2-24.11,9.22-8.34,7.83-11.22,18.11-11.4,29.2-48.05-.26-96.18,3.61-144.23,3.98-15.43.12-30.86-.76-46.28-1.23l-93.75-2.81c.04-11.08-1.44-20.57-9.65-28.84-6.22-6.27-14.88-9.97-23.74-9.92-9.3.05-18.36,4.09-24.71,10.86-7.83,8.35-8.94,16.88-8.43,27.72-43.3-.3-86.79-4.2-129.88-8.17-18.4-1.7-57.94-4.89-73.98-10.89-6.56-2.45-10.01-5.97-12.95-12.31-4.13-8.91-7.1-23.01-3.53-32.31Z"/>
  <path class="cls-1" d="M995.03,681.17c7.68-.14,22.41-2.04,29.18,1.61,3.49,1.88,5.83,5.57,6.81,9.33,1.33,5.12.55,11.03-2.38,15.47-1.51,2.28-3,3.89-5.77,4.42-8.11.58-18.06,1.82-26.01.54-3.56-.57-6.62-2.33-8.64-5.37-2.58-3.9-3.01-9.41-2.03-13.89,1.25-5.71,3.98-9.02,8.83-12.11Z"/>
  <path class="cls-1" d="M339.95,677.88c7.75-.91,21.5-1.9,28.31,2.15,3.36,1.99,5.52,5.15,6.5,8.9,1.08,4.13,1.46,12.96-1.11,16.62-1.68,2.38-7.65,2.56-10.37,2.96-7.5.15-28.08.94-34.08-2.62-2.72-1.61-3.61-6.26-3.83-9.12-.41-5.45.58-11.44,4.35-15.62,2.83-3.14,6.36-3.03,10.24-3.27Z"/>
  <path class="cls-4" d="M657.55,298.2c57.55-2.07,124.78,2.11,181.66,11.95,11.45,1.98,23.5,3.61,34.5,7.4,5.93,2.04,12.44,5.29,16.54,10.14,8.03,9.48,12.38,22.43,17.73,33.5,12.17,25.23,23.54,50.79,35.67,76.02-18.46-3.04-36.9-4.44-55.52-6.04,2.98-5.03,5.77-10.04,8.29-15.31-3.81,4.86-7.11,9.92-10.16,15.28l-21.87-1.24c6.23-13.42,16-24.91,22.69-38.05-9.04,10.76-21.43,28.6-31.16,37.34-6.12.2-12.3-.34-18.41-.68,5.94-7.88,10.92-16.65,16.3-24.92,7.84-12.05,16.22-23.98,23.09-36.61-16.45,20.4-32.26,41.35-48.86,61.62-5.58,0-11.18-.46-16.75-.79,9.44-14.88,18.33-30.11,27.82-44.95,7.07-11.06,15.08-21.77,20.89-33.57-14.51,17.64-28.31,36.08-42.34,54.13-6.09,7.83-11.88,16.46-18.71,23.63-4.92.15-9.68-.14-14.58-.58,3.07-4.24,5.42-9.25,8.04-13.8,4.42-7.69,9.03-15.27,13.62-22.87,5.76-9.52,11.48-19.07,17.44-28.48,5.36-8.47,11.57-16.97,15.5-26.23-13.52,19.45-28.46,38-43.27,56.47-9.14,11.39-18.84,22.67-26.75,34.97l-11.38-.15c10.05-21.92,26.68-47.95,39.67-68.45,6.36-10.04,14.44-20.42,19.1-31.26l-76.19,99.4c-4.47-.18-8.97-.14-13.44-.2,12.58-15.9,25.92-42.14,36.84-60.34l16.42-27c2.52-4.1,5.36-7.81,7.49-12.16l-.17-.22-1.61.42,1.45-.15c-10.18,10.85-18.89,24.48-27.9,36.35-15.95,21.03-32.39,41.6-47.67,63.13l-12.02.14c3.73-4.81,6.51-10.64,9.57-15.92l17.57-30.39c11.09-19.13,23.49-37.77,33.87-57.27-5.27,5.18-9.64,12.24-14.04,18.18-8.1,10.91-16.2,21.8-24.57,32.5-13.56,17.12-27.8,34.1-39.66,52.47l-9.05.15c10.22-17.4,19.38-35.45,29.46-52.94,10.46-18.15,22.05-35.96,31.74-54.51-8.27,8.24-16.34,22.19-23.22,32.11l-36.57,51.93c-5.35,7.65-10.2,15.62-15.76,23.13-9.12.64-18.34.66-27.48.78,7.19-13.87,15.93-27.27,23.87-40.75,1.65-2.79,5.17-7.18,6.04-10.15.15-.52,0-1.16-.07-1.67-12.01,17.82-24.77,35.12-37.17,52.68-7.36.07-14.7,0-22.06-.12,7.66-14.33,16.44-28.32,24.91-42.2,4.81-7.87,10.02-15.71,13.95-24.06-16.73,21.48-31.53,44.64-47.96,66.4-6.52.61-13.05.72-19.59.88,12.68-25,28.47-48.31,42.25-72.7-7.73,9.3-14.42,19.69-21.4,29.57-10.38,14.69-20.91,29.25-31.61,43.71-6.08.44-12.22.46-18.32.62,7.16-11.1,13.28-23.38,19.97-34.82,7.78-13.29,16.43-26.35,23.51-40-9.9,10.65-17.76,24.94-26.08,36.9-9.14,13.13-19.15,25.7-28.72,38.52-6.08.37-12.07.43-18.17.3,2.6-5.14,5.9-9.99,8.81-14.96,6.98-11.93,13.76-23.94,21.09-35.67,7.64-12.23,15.94-24.18,22.55-37.02-8.86,8.82-15.7,21.9-22.99,32.16-13.7,19.27-27.95,38.23-42.81,56.62-6.02.97-12.4.93-18.49,1.24,11.23-18.83,22.67-37.48,34.23-56.11,4.72-7.6,10.2-14.97,14.52-22.77,1.1-1.99,1.88-3.66,2.24-5.91-4.55,4.62-10.71,15.34-14.97,21.2-15.53,21.35-31.33,42.54-46.41,64.21l-53.09,2.48c8.23-29.05,28.06-88.67,48.71-110.4,3.04-3.2,6.2-5.36,10.31-6.99,12.43-4.94,27.71-6.31,40.9-8.21,45.96-6.61,91.85-10.05,138.26-11.07Z"/>
  <path class="cls-4" d="M666.1.24c2.78-.15,5.59-.14,8.38-.18,37.21-.57,75,3.39,111.55,10.16,118.22,21.89,221.65,75.84,307.93,159.72,89.35,86.85,150.42,205.82,170.79,328.58,6.03,36.34,7.91,73.25,8.43,110.03-3.67.17-7.38.04-11.05.02,1.38-131.5-37.74-256.71-116.39-362.39-11.56-15.53-23.26-30.7-36.41-44.93C1002.75,85.79,859.37,17.16,701.82,11.17c-154.1-5.86-307.05,50.1-420.12,155.19-97.1,90.25-162.06,215.21-182.41,346.1-4.84,31.13-6.09,63.06-7.25,94.51,7.26-.35,14.53-.91,21.76-1.69.88-115.76,35.19-225.44,98.54-321.99,62.61-95.41,158.59-170.6,264.98-211.31,33.44-12.8,67.82-21.66,102.83-28.91,30.6-5.74,61.17-8.2,92.31-8.54,71.5-.78,140.04,12.36,206.88,37.49,18.74,7.05,37.58,14.69,55.39,23.87,50.04,25.78,97.57,61.09,137.73,100.43,86.01,84.26,143.8,200.38,162.15,319.17,4.89,31.65,6.19,62.88,6.49,94.83-20.78,1.33-41.81,1.61-62.63,2.02,1.3-9.8,1.77-19.46,1.65-29.34-1.57-134.63-59.68-257.74-155.52-351.01-93.33-90.83-222.85-141.88-352.91-139.84-134.61,2.11-263.56,58.91-357.02,155.57-78.88,81.58-129.22,193.37-139.97,306.17-1.88,19.69-1.92,39.19-1.59,58.94-11.82.01-23.71-.8-35.53-1.24l-55.52-1.71c.5-91.11,17.19-174.28,54.47-257.52,27.94-62.36,61.96-114.28,108.21-164.54C328.25,97.05,443.61,34.53,564.48,11.13c33.67-6.52,67.39-9.49,101.62-10.9Z"/>
  <path class="cls-3" d="M661.47,48.39c2.77-.11,5.55-.13,8.32-.19,88.79-1.72,179.99,19.35,259.05,60.09,47.78,24.62,92.05,57.34,130.69,94.6,22.06,21.27,41.5,44.52,59.63,69.2,71.79,97.73,106.48,209.74,108.59,330.54-7.32.11-14.64.45-21.95.7,1.02-138.45-50.32-269.11-145.78-369.63-95.47-100.51-227.84-161.26-366.68-164.63l-1.48-.05c-137.77-3.75-274.16,49.23-374.18,143.7-85.42,80.67-142.33,186.98-161.36,303.03-4.74,28.92-6.7,58.25-7.54,87.52-6.81.35-13.61.58-20.43.73-.19-14.9,1.07-30.04,2.25-44.89,9.92-125.02,62.57-244.31,147.78-336.18,99.53-107.32,237.05-169.01,383.1-174.56Z"/>
  <path class="cls-5" d="M188.25,625.74c-3.78-31.21-2.49-61.43,1.67-92.54,10.63-79.33,40.84-153.83,86.32-219.6,4.94-7.14,9.75-14.54,15.08-21.39,13.37-17.16,28.65-33.31,44.3-48.39,79.39-76.49,181.41-123.79,290.75-136.69,125.27-14.78,254.1,23.92,352.68,101.9,27.71,21.92,54.63,46.91,77.31,74.08,57.75,69.19,97.2,160.82,107.64,250.36,3.16,27.1,6.42,66.49,2.38,93.27-8.69-.5-17.4-.99-26.07.15-.57,3.6-1.01,7.28-1.86,10.83,9.16-.02,18.39-.26,27.54.12-2.69,33.92-12.87,66.45-25.52,97.83-3.22,7.99-6.14,16.51-10.78,23.78-1.11-13.6-.51-27.49-.58-41.13-.04-7.67-.82-15.69-.34-23.33.15-2.35,1.56-4.5,2.47-6.63,2.48-5.86,3.32-12.8,2.44-19.09-1.19-8.56-6.04-15.23-12.14-21.03-.69-18.39,1.22-36.86.47-55.24-.44-10.69-2.48-21.14-5.01-31.52-7.35-30.15-20.23-54.12-43.16-75.37-12.89-11.94-25.42-20.63-42.02-26.6,11.08-.69,22.16-.89,30.14-9.93,6.42-7.27,7.93-17.35,7.05-26.74-.69-7.4-3.89-13.66-9.79-18.26-3.71-2.89-7.97-4.77-12.59-5.63-9.35-1.74-50.54-1.4-59.97-.02-3.41.5-6.6,1.5-9.85,2.6-5.63-14.11-12.42-27.67-18.95-41.36-14.31-30.03-28.45-62.59-61.19-76.51-22.06-9.38-46.78-12.42-70.34-15.8-90.92-13.04-181.44-13.18-272.72-4.07-29.05,2.9-63.11,5.95-90.26,17.01-40.4,16.47-64.58,72.26-80.62,110.68-.94,2.26-2.23,7.62-4.11,8.82-1.84-1.15-2.99-2.48-4.37-4.11-14.59-4.9-60.15-5.86-73.9.95-2.34,1.16-4.26,2.63-6.15,4.42-3.45,10.99-5.05,33.66.16,43.95,2.94,5.82,8.63,8.99,14.67,10.81,5.73,1.73,11.71,2.27,17.64,2.82-6.95,2.49-13.76,4.92-20.21,8.57-24.58,13.88-44.62,39.72-56.47,64.94-14.34,30.51-20.2,76.89-10.92,109.28-7.58,5.72-10.83,13.53-12.1,22.63-2.01,14.42-.98,29.85-.91,44.4.06,15.24-.51,30.67.78,45.87-14.6-29.7-26.19-63.55-32.69-96.08-.91-4.54-1.79-15.47-4.01-18.98-1.22-4.49-1.43-9.37-1.87-13.99Z"/>
  <path class="cls-4" d="M419.08,236.49c2.18,3.74,3.64,7.63,6.03,11.33,4.16-.13,8.29-.84,12.41-1.43-2.8,1.55-7.78,3.56-9.64,6.16-2.31,3.22-.35,9.25.28,12.76-2.83-.92-5.37-3.17-7.77-4.91-2.91-.53-7.61,2.81-10.14,4.39.69-3.91,1.28-7.84,1.91-11.75-3.08-1.44-6.03-2.81-8.82-4.79,3.24-.23,7.95-.07,10.74-1.85,3.09-1.97,3.97-6.63,5-9.91Z"/>
  <path class="cls-4" d="M954.06,226.37c.93,3.24,1.7,7.64,4.15,10.08,2.99,2.97,7.98,2.45,11.87,2.52-2,2.79-4.85,4.96-6.74,7.77-1.37,2.04-.8,3.06-.27,5.27,1.67,2.83,2.08,6.45,2.77,9.63-2.73-1.8-5.55-3.53-8.15-5.53l-5.03-2.67c-3.68,2.51-7.27,4.72-11.28,6.68,1.57-3.61,2.63-7.4,3.78-11.15-2.93-3.45-5.6-6.47-9.05-9.44,3.15-.16,7.33.06,10.25-1.17,4.62-1.93,5.99-7.74,7.7-11.99Z"/>
  <path class="cls-4" d="M520.26,169.45c3.63,3.45,7.01,15.88,9.08,21.01,8.1.28,16.11.73,24.21.14-5.91,5.05-11.73,10.04-18.17,14.42,1.64,7.4,2.31,14.65,4.52,21.97-5.96-3.08-11-7.78-17.12-10.85-4.66-.04-13.8,8.29-17.95,11.15,1.78-6.98,3.45-14.34,4.17-21.51-6.19-5.44-13.08-10.66-20.23-14.75,8.27-.18,16.6-.6,24.86,0,3.05-7.17,5.37-13.88,6.63-21.59Z"/>
  <path class="cls-4" d="M828.23,189.2c3.5-7.37,6.28-15.31,9.34-22.89,2.67,7,4.44,14.71,8.26,21.18.99,1.68,1.41,2.04,3.31,2.45l20.35-.13c-5.42,4.55-10.86,8.93-16.58,13.1-.72,7.87,2.99,17.33,5.33,24.78-6.53-4.71-12.92-9.52-20.26-12.91-6.66,3.64-12.93,7.99-19.27,12.17,1.85-7.15,3.31-14.43,4.9-21.65-6.68-4.94-13.1-10.3-19.14-16.01,7.89.65,15.88.72,23.76-.12Z"/>
  <path class="cls-4" d="M679.93,123.02c2.24,3.08,12.15,31.96,14.56,37.95,11.58-.16,23.14-.08,34.72.17-8.28,8.09-17.56,14.89-26.58,22.13,2.66,13.4,5.64,26.16,10.92,38.82-10.83-7.28-21.36-15.42-32.94-21.51-11.04,6.08-21.01,14.14-31,21.76,3.11-12.49,6.38-24.76,10.52-36.96-8.69-9.47-19.96-16.88-30.31-24.39,12.42-.29,24.89-.5,37.32-.32,3.83-12.6,8.67-25.11,12.8-37.65Z"/>
  <path class="cls-4" d="M982.36,462.54c.06-11.92-3.15-36.89,4.45-46.28,2.13-2.63,8.63-3.25,11.84-3.37,7.16-.27,44.72-1.16,48.17,2.57,2.49,2.69,2.84,6.8,2.92,10.29.1,4.62.22,12.18-3.34,15.52-1.38,1.29-3.53,2.03-5.36,2.31-5.46.84-11.97.14-17.52.1-9.89-.06-19.76.03-29.65.15l-.03,21.14c26.45,4.96,52.57,18.93,70.97,38.64,20.18,21.62,32.41,51.91,35.13,81.19,1.05,11.27.62,22.78.62,34.1,0,12.32.15,24.67-.27,36.98-11.69,2.15-24.38,2.32-36.24,2.85-30.48,1.36-60.97.78-91.46,1.54-26.24.65-52.43,1.66-78.68,2.01-124.66,1.66-249.37-.15-374.03-.43-50.01-.11-99.9-1.31-149.89-2.07-24.66-.38-49.34-.6-73.97-1.97-11.98-.67-24.51-1.16-36.3-3.48-.07-.49-.13-.98-.18-1.48-4.88-52.27-8.36-95.74,27.31-139.66,37.1-45.69,95.08-54.27,149.97-59.81,26.83-2.71,53.59-5.17,80.52-6.69,17.69-1,35.77-.82,53.35-2.71l.72-.08,1.49.47c19.8-2.64,45.54-1.84,65.96-2.18,31.58-.54,63.03-.35,94.62.16,16.69.27,33.52.11,50.17,1.17,1.61,7.72,7.42,42.67,11.13,46.44,2.73-6.15-5.11-37.91-7.54-46.05,26.52.12,53.61,2.89,80.04,5.05,30.5,2.49,62.14,4.49,92.18,10.22-16.69,16.49-28.37,35.79-37.05,57.53-39.3-4.17-78.84-6.58-118.32-8.39v9.86c40.49-.44,80.92,2.48,121.4,2.8,9.46-23.21,19.75-42.49,37.18-60.84,6.6.67,13.15,1.47,19.72,2.4Z"/>
  <path class="cls-1" d="M571.4,443.9l1.49.47c-1.78,12.03-2.32,35.05-6.23,45.29-.06-.11-.1-.25-.19-.33-.2-.18-.44-.29-.66-.44.16-.42.36-.83.47-1.27.6-2.29.13-6.47.21-8.98.33-11.15.33-24.45,4.91-34.74Z"/>
  <path class="cls-3" d="M409.51,460.57c4.48,2.58,22.74,44.64,26.51,52.62,13.7.1,27.59-1.15,41.29-1.84,27.7-1.39,55.84-2.9,83.56-2.92.32,3.11.32,6.29.42,9.42-.9.73-2.21.78-3.34.8l-124.31,1.78c-6.78-12.38-12.58-25.75-18.04-38.76-2.16-5.14-8.11-16.15-6.08-21.11Z"/>
  <path class="cls-3" d="M650.51,492.17c18.19-.39,134.38-1.24,141.93,4.52.42,1.52.47,1.52-.16,2.95-8.8,1.62-19.31.19-28.27.06l-51.07-.35c-26.2.01-52.43-.17-78.63.18l-44.79.32c-4.24-.01-8.55.42-12.77.24-2.05-.09-3.75-.29-5.5-1.46-.45-1.59-.48-1.47.32-2.92,5.69-3.19,67.83-3.32,78.94-3.55Z"/>
  <path class="cls-3" d="M644.11,505.25c49.84-.4,99.79.26,149.62,1.27.99,3.87,1.64,7.85,2.39,11.77-25.68.75-51.48.29-77.17.34l-151.37.41,2.5-12.8c24.67-.2,49.38-.12,74.03-.99Z"/>
  <path class="cls-1" d="M444.69,626.44l348.28.74c16.57.06,106.04-1.45,114.42,1.52,1.71.6,2.49,1.58,3.28,3.17.31,2.42-.23,3.63-1.28,5.8-2.54,1.84-5.23,1.85-8.23,1.92-11.46.26-23.03-.25-34.5-.33l-89.08-.78-333.14-.66.24-11.39Z"/>
  <path class="cls-3" d="M444.44,554.44h305.04s100.5.14,100.5.14c17.37.04,34.99-.62,52.31.24,2.2.11,5.15.22,6.99,1.61,1.38,1.04,2.07,2.15,2.16,3.89.1,1.96-1.2,3.07-2.43,4.34-10.87,2.68-32.27,1.4-44.31,1.41l-78.34.06-342.21.69.3-12.38Z"/>
  <path class="cls-3" d="M444.81,578.68l285.5.16h131.43c9.77.04,38.17-1.69,46.12.85,1.65.53,3.21,1.74,3.76,3.44.64,1.98-.19,3.2-.94,4.94-2.9,1.36-5.21,1.85-8.4,2.02-16.91.88-34.15.27-51.09.27l-93.85.11-312.63.52.09-12.31Z"/>
  <path class="cls-1" d="M444.66,602.69l383.87.37c11.62.06,72.8-1.75,79.51.92,1.62.65,2.93,1.77,3.47,3.47.61,1.93-.52,3.76-1.4,5.4-2.32,1.19-4.15,1.62-6.76,1.75-15.73.78-31.89-.14-47.67-.16l-99.09.04-311.96.53.02-12.32Z"/>
  <path class="cls-3" d="M1002.32,507.25c16.93-1.01,34.38,3.83,48.02,13.99,14.69,10.94,25.56,27.78,28.2,46.04,2.65,18.37-2.35,38.34-13.62,53.08-13.82,18.08-31.45,26.05-53.6,28.97-20.01.64-38.51-3.17-54.24-16.3-14.25-11.89-22.67-29.22-24.29-47.63-1.76-19.91,4.98-38.8,17.95-53.89,13.42-15.62,31.41-22.79,51.58-24.27Z"/>
  <path class="cls-4" d="M1001.29,513.45c15.75-1.47,32.81,3.71,45.34,13.28,13.4,10.24,22.4,25.97,24.54,42.68,2.17,16.9-2.28,33.8-12.84,47.21-12.4,15.74-28.9,24.64-48.63,27.01-17.07,1.22-34.17-3.57-47.56-14.39-13.3-10.74-20.76-25.53-22.5-42.45-1.8-17.49,2.62-35.49,13.84-49.25,12.04-14.77,29.16-22.31,47.81-24.08Z"/>
  <path class="cls-3" d="M1002.49,519.65c15.23-.55,29.6,4.11,41.37,13.83,11.86,9.79,19.47,24.13,20.79,39.48,1.34,15.54-3.78,30.38-13.86,42.21-10.99,12.9-25.37,20.49-42.24,21.95-16.56.32-31.3-3.36-44.15-14.3-11.41-9.71-18.58-23.42-19.77-38.37-1.27-16.01,4.76-32.11,15.19-44.19,11-12.74,26.06-19.41,42.66-20.6Z"/>
  <path class="cls-4" d="M1002.25,525.82c11.94-.77,24.02,2.61,33.73,9.61,11.66,8.41,19.02,20.81,21.09,35.02,1.97,13.47-2.05,26.87-10.13,37.7-9.82,13.16-22.64,20.35-38.7,22.74-14.41.39-27.14-2.63-38.56-11.84-10.66-8.59-17.55-21.58-18.91-35.2-1.37-13.73,3.86-27.3,12.52-37.82,10.16-12.34,23.21-18.69,38.96-20.2Z"/>
  <path class="cls-3" d="M1000.41,532.62c6.21-.65,12.52-.2,18.52,1.54,12.24,3.54,21.33,11.64,27.4,22.66-3.43-3.94-6.83-7.78-10.92-11.05-9.49-7.58-21.2-11.61-33.38-10.06-12.02,1.52-22.95,8.09-30.34,17.63-7.14,9.22-10.14,20.53-8.59,32.09,1.66,12.4,8.31,21.26,17.91,28.7,1.66,1.06,3.34,2.04,5.12,2.89,14.37,6.87,29.55,3.96,43.97-1.09-5.85,3.99-11.67,7.2-18.71,8.53-11.39,2.16-22.66-.64-32.17-7.13-10.36-7.07-17.49-17.93-19.69-30.29-2.14-12.01.69-24.66,7.76-34.6,8.04-11.31,19.64-17.52,33.12-19.8Z"/>
  <path class="cls-3" d="M1004.49,544.36c6.96-.37,13.88.97,20.09,4.19,8.33,4.31,14.41,11.6,16.95,20.65,2.45,8.7,1,17.58-3.62,25.3-6.02,10.06-14.99,15.09-26.06,17.73-9.34.95-17.99-.28-25.92-5.67-7.27-4.94-12.28-12.32-13.74-21.02-1.62-9.65.68-20.15,6.68-27.93,6.54-8.49,15.36-11.92,25.62-13.24Z"/>
  <path class="cls-1" d="M352.44,505.91c20.51.33,38.84,5.98,54.21,20.15,13.96,12.87,22.23,31.47,22.83,50.4.62,19.55-6.27,37.49-19.8,51.64-14.45,15.11-34.19,21.11-54.67,21.51-19.19-.29-38.57-4.41-53.41-17.3-14.25-12.38-22.96-29.75-24.07-48.62-1.13-19.14,4.85-37.21,17.7-51.55,15.59-17.39,34.21-25.05,57.21-26.24Z"/>
  <path class="cls-2" d="M348.88,514.14c14.45-2.01,31.77,2.97,43.52,11.4,14.02,10.06,22.76,25.39,25.42,42.35,2.6,16.58-1.14,33.73-11.16,47.29-11.01,14.91-26.96,22.59-44.95,25.2-16.78.98-32.65-2.91-46.03-13.45-13.38-10.54-22.1-26.21-24.03-43.13-1.89-16.5,3.42-34.98,13.92-47.88,10.9-13.38,26.42-20.13,43.31-21.78Z"/>
  <path class="cls-1" d="M352.11,519.67c15.15-.35,30.42,4.77,41.87,14.8,11.39,9.98,18.2,25.01,19.05,40.06.87,15.33-4.56,30.15-14.79,41.57-10.79,12.05-25.37,18.22-41.34,19.17-14.43.56-29.57-5.13-40.41-14.59-11.61-10.14-18.98-25.54-19.84-40.91-.84-15.06,4.66-30.56,14.73-41.79,10.6-11.83,25.16-17.38,40.72-18.31Z"/>
  <path class="cls-4" d="M354.27,525.16c12.82.11,24.29,3.49,34.17,11.89,10.2,8.66,16.02,21.22,17.02,34.49,1.07,14.17-3.33,28.59-12.71,39.35-9.12,10.46-21.46,15.77-35.15,16.71-12.65-.04-24.29-3.32-34.1-11.57-10.54-8.86-16.6-22.01-17.66-35.64-1.1-14.11,3.36-28.41,12.74-39.08,9.62-10.93,21.45-15.32,35.69-16.15Z"/>
  <path class="cls-1" d="M353.15,540.2c9.14-1.12,19.2.89,26.9,5.96,8.33,5.49,14.94,15.39,16.9,25.18,1.9,9.5-.28,20.03-5.88,27.94-6.27,8.85-15.35,13.8-25.91,15.71-9.58,1.09-18.98-.23-27.27-5.41-8.86-5.54-15.53-15.27-17.53-25.54-1.84-9.4.06-19.58,5.6-27.46,6.38-9.07,16.5-14.37,27.19-16.38Z"/>
</svg>